<?xml version="1.0"?>
<svg xmlns="http://www.w3.org/2000/svg" width="467" height="55" viewBox="0 0 467 55" fill="none">
<path d="M190.717 0.615433C192.194 0.615433 193.418 0.680656 194.791 0.876548C194.945 0.89851 195.06 0.927868 195.176 0.967542C195.452 1.06249 195.595 1.1623 195.828 1.30778C197.236 2.18669 197.684 4.11634 196.793 5.5825C196.137 6.66437 194.948 7.20073 193.767 7.03884C192.785 6.90432 191.765 6.868 190.717 6.868C186.913 6.868 183.545 7.75491 180.616 9.52865C177.686 11.3025 175.39 13.7413 173.728 16.8455C172.066 19.9053 171.236 23.3641 171.236 27.2221C171.236 31.0801 172.066 34.5612 173.728 37.6651C175.39 40.7248 177.686 43.164 180.616 44.9818C183.545 46.7557 186.913 47.6427 190.717 47.6427C194.521 47.6427 197.889 46.7557 200.818 44.9818C203.748 43.164 206.044 40.7248 207.705 37.6651C209.367 34.5612 210.198 31.0801 210.198 27.2221C210.198 26.4448 210.164 25.6837 210.097 24.9389C210.013 24.0048 209.924 23.0434 210.445 22.1853C211.407 20.6001 213.455 20.1061 215.018 21.0821C215.752 21.5403 216.248 22.2408 216.469 23.0191L216.489 23.1069L216.512 23.2098C216.534 23.3811 216.574 23.6676 216.6 23.9348C216.705 25.0029 216.757 26.0987 216.757 27.2221C216.757 31.1244 216.123 34.7163 214.855 37.9977C213.587 41.2348 211.794 44.0508 209.477 46.4454C207.159 48.7957 204.404 50.6358 201.212 51.9663C198.063 53.2522 194.565 53.8952 190.717 53.8952C186.869 53.8952 183.348 53.2522 180.156 51.9663C176.964 50.6358 174.209 48.7957 171.892 46.4454C169.618 44.0508 167.847 41.2348 166.579 37.9977C165.31 34.7163 164.676 31.1244 164.676 27.2221C164.676 23.3198 165.31 19.75 166.579 16.5129C167.847 13.2757 169.618 10.4821 171.892 8.13179C174.209 5.73721 176.964 3.89693 180.156 2.61096C183.348 1.28064 186.869 0.615433 190.717 0.615433Z" fill="white"/>
<path d="M386.544 51.766C389.638 53.1366 392.931 53.8217 396.416 53.8217C399.381 53.8217 402.259 53.4237 405.049 52.6282C407.882 51.7883 410.366 50.2852 412.503 48.1191C412.604 48.0155 412.688 47.9116 412.752 47.8076C412.823 47.6906 412.871 47.5733 412.894 47.456C412.939 47.235 412.961 46.9921 412.961 46.7266C412.961 45.8867 412.591 45.2899 411.848 44.9364C411.108 44.5386 410.474 44.5606 409.953 45.0028C406.072 48.2297 401.561 49.8432 396.416 49.8432C393.451 49.8432 390.663 49.2684 388.047 48.1191C385.431 46.9256 383.122 45.2899 381.116 43.2123C379.155 41.1347 377.607 38.7254 376.473 35.9846C375.34 33.2441 374.774 30.3265 374.774 27.232C374.774 24.226 375.34 21.3747 376.473 18.6782C377.607 15.9817 379.177 13.5945 381.182 11.5168C383.188 9.395 385.497 7.73734 388.113 6.5437C390.727 5.30599 393.496 4.68709 396.416 4.68709C398.99 4.68709 401.387 5.04077 403.609 5.748C405.834 6.45534 407.816 7.6047 409.56 9.19608C410.17 9.72654 410.714 9.99178 411.195 9.99178C411.806 9.99178 412.284 9.79285 412.633 9.395C412.982 8.9529 413.156 8.46669 413.156 7.93623C413.156 7.36153 412.961 6.91951 412.567 6.61C407.903 2.67574 402.52 0.708557 396.416 0.708557C392.843 0.708557 389.509 1.4159 386.412 2.83049C383.317 4.2008 380.593 6.12381 378.239 8.59933C375.929 11.0307 374.119 13.8597 372.811 17.0868C371.503 20.2696 370.85 23.6514 370.85 27.232C370.85 30.8568 371.527 34.2828 372.877 37.5097C374.227 40.6927 376.082 43.5219 378.434 45.9973C380.788 48.4288 383.492 50.3516 386.544 51.766Z" fill="white"/>
<path d="M297.648 53.8854C297.076 53.8854 296.594 53.7073 296.197 53.351C295.845 52.9499 295.67 52.46 295.67 51.8808V4.31689H279C278.473 4.31689 278.034 4.16093 277.682 3.84914C277.373 3.49275 277.221 3.04732 277.221 2.51277C277.221 1.97822 277.373 1.55499 277.682 1.24311C278.034 0.886807 278.473 0.708557 279 0.708557H316.296C316.823 0.708557 317.239 0.886807 317.548 1.24311C317.899 1.55499 318.075 1.97822 318.075 2.51277C318.075 3.04732 317.899 3.49275 317.548 3.84914C317.239 4.16093 316.823 4.31689 316.296 4.31689H299.624V51.8808C299.624 52.46 299.427 52.9499 299.03 53.351C298.679 53.7073 298.218 53.8854 297.648 53.8854Z" fill="white"/>
<path d="M329.005 53.7833C328.425 53.7833 327.933 53.6022 327.532 53.2398C327.174 52.8319 326.996 52.3337 326.996 51.7446V2.74735C326.996 2.15833 327.174 1.68263 327.532 1.32026C327.933 0.912427 328.425 0.708557 329.005 0.708557H361.241C361.777 0.708557 362.245 0.912427 362.646 1.32026C363.05 1.68263 363.25 2.15833 363.25 2.74735C363.25 3.291 363.05 3.76669 362.646 4.17443C362.245 4.58218 361.777 4.78602 361.241 4.78602H331.017V25.1733H353.197C353.779 25.1733 354.248 25.3772 354.605 25.7849C355.006 26.1474 355.209 26.6231 355.209 27.212C355.209 27.801 355.006 28.2992 354.605 28.7071C354.248 29.115 353.779 29.3187 353.197 29.3187H331.017V49.7059H361.241C361.777 49.7059 362.245 49.9099 362.646 50.3178C363.05 50.7254 363.25 51.2011 363.25 51.7446C363.25 52.3337 363.05 52.8319 362.646 53.2398C362.245 53.6022 361.777 53.7833 361.241 53.7833H329.005Z" fill="white"/>
<path d="M427.295 53.8217C426.722 53.8217 426.24 53.6436 425.843 53.2873C425.492 52.8862 425.316 52.3963 425.316 51.8171V2.71323C425.316 2.13406 425.492 1.66633 425.843 1.31002C426.24 0.909015 426.722 0.708557 427.295 0.708557C427.865 0.708557 428.325 0.909015 428.677 1.31002C429.074 1.66633 429.271 2.13406 429.271 2.71323V24.7639H462.546V2.71323C462.546 2.13406 462.721 1.66633 463.073 1.31002C463.47 0.909015 463.952 0.708557 464.524 0.708557C465.051 0.708557 465.512 0.909015 465.906 1.31002C466.303 1.66633 466.5 2.13406 466.5 2.71323V51.8171C466.5 52.3963 466.303 52.8862 465.906 53.2873C465.512 53.6436 465.051 53.8217 464.524 53.8217C463.952 53.8217 463.47 53.6436 463.073 53.2873C462.721 52.8862 462.546 52.3963 462.546 51.8171V28.3721H429.271V51.8171C429.271 52.3963 429.074 52.8862 428.677 53.2873C428.325 53.6436 427.865 53.8217 427.295 53.8217Z" fill="white"/>
<path d="M109.89 52.6095C112.429 53.4975 115.1 53.9414 117.902 53.9414C120.266 53.9414 122.542 53.6305 124.731 53.009C126.964 52.3875 128.934 51.4552 130.641 50.2122C132.392 48.9249 133.771 47.3487 134.778 45.4843C135.828 43.6198 136.354 41.4222 136.354 38.8919C136.354 34.4969 134.887 30.9676 131.954 28.304C129.065 25.596 125.016 23.9756 119.806 23.4429C116.391 23.0877 113.765 22.4662 111.926 21.5784C110.131 20.6905 108.884 19.6473 108.183 18.4486C107.526 17.2056 107.198 15.9181 107.198 14.5863C107.198 11.9671 108.292 10.036 110.481 8.79299C112.67 7.5056 115.385 6.88406 118.624 6.92848C121.338 6.97279 123.549 7.52772 125.256 8.59325C127.007 9.65869 128.43 11.1458 129.525 13.0548C130.006 13.8983 130.728 14.4754 131.691 14.7862C132.655 15.0969 133.552 14.9859 134.384 14.4532C135.128 13.9649 135.544 13.2989 135.631 12.4554C135.763 11.5676 135.522 10.6353 134.909 9.65869C133.246 6.95067 131.144 4.77539 128.605 3.13282C126.066 1.49025 122.805 0.668961 118.821 0.668961C115.406 0.668961 112.298 1.20168 109.497 2.26712C106.739 3.33256 104.549 4.8863 102.93 6.92848C101.31 8.97054 100.5 11.4566 100.5 14.3866C100.5 18.382 102.054 21.7337 105.162 24.4417C108.27 27.1498 112.539 28.7702 117.967 29.3028C122.126 29.7467 125.103 30.901 126.898 32.7654C128.737 34.6301 129.656 36.7389 129.656 39.0918C129.656 40.9563 129.109 42.5321 128.014 43.8197C126.92 45.0627 125.475 46.0171 123.68 46.6829C121.929 47.349 120.003 47.6819 117.902 47.6819C116.019 47.6819 114.224 47.3933 112.517 46.8162C112.42 46.7834 112.323 46.7498 112.227 46.7157L112.107 46.6724L111.962 46.619C111.782 46.5521 111.604 46.4827 111.43 46.4115C110.78 46.146 110.271 45.8158 109.583 45.8158C107.817 45.8158 106.385 47.2679 106.385 49.0587C106.385 50.0996 106.875 50.9836 107.618 51.5625C107.618 51.5625 107.967 51.8108 108.14 51.8932C108.313 51.9756 108.488 52.0721 108.834 52.2118C109.179 52.3515 109.531 52.484 109.89 52.6095Z" fill="white"/>
<path d="M2.39625 52.8917C3.05592 53.5606 3.86947 53.8952 4.83688 53.8952C5.80441 53.8952 6.61796 53.5606 7.27752 52.8917C7.93719 52.2229 8.26694 51.3978 8.26694 50.4167V29.7667H15.2852V29.7597C17.0308 29.7597 18.4459 28.3249 18.4459 26.5547C18.4459 24.7845 17.0308 23.3451 15.2852 23.3451H8.26694V7.0905H34.6521C35.6637 7.0905 36.4772 6.80064 37.0928 6.22091C37.7085 5.64115 38.0163 4.88308 38.0163 3.94656C38.0163 2.96553 37.7085 2.18512 37.0928 1.60539C36.4772 0.981038 35.6637 0.668961 34.6521 0.668961H4.83688C3.86947 0.668961 3.05592 1.00334 2.39625 1.6723C1.73667 2.29665 1.40683 3.12164 1.40683 4.14729V50.4167C1.40683 51.3978 1.73667 52.2229 2.39625 52.8917Z" fill="white"/>
<path d="M67.4525 53.9815C63.2308 53.9815 59.4929 53.2012 56.2387 51.6403C52.9846 50.0349 50.4339 47.8273 48.5869 45.0181C46.7842 42.2087 45.8825 38.9978 45.8825 35.3857V4.14729C45.8825 3.12164 46.2125 2.29665 46.8721 1.6723C47.5316 1.00334 48.3451 0.668961 49.3126 0.668961C50.3239 0.668961 51.1377 1.00334 51.7533 1.6723C52.4129 2.29665 52.7429 3.12164 52.7429 4.14729V35.3857C52.7429 37.7938 53.3582 39.9342 54.5898 41.807C55.8651 43.6357 57.602 45.0848 59.8008 46.155C62.0434 47.1809 64.5942 47.6937 67.4525 47.6937C70.2229 47.6937 72.6634 47.1809 74.7743 46.155C76.9291 45.0848 78.6003 43.6357 79.7876 41.807C81.0189 39.9342 81.6346 37.7938 81.6346 35.3857V16.7027H81.6474C81.6748 14.8316 83.1793 13.3234 85.0311 13.3234C86.8828 13.3234 88.3871 14.8316 88.4148 16.7027H88.4289V35.3857C88.4289 38.9978 87.5272 42.2087 85.7242 45.0181C83.9651 47.8273 81.5025 50.0349 78.3364 51.6403C75.1702 53.2012 71.5424 53.9815 67.4525 53.9815Z" fill="white"/>
<path d="M150.447 53.9589C149.48 53.9589 148.666 53.6242 148.007 52.9554C147.347 52.2865 147.017 51.4614 147.017 50.4803V16.95C147.012 16.8683 147.009 16.7859 147.009 16.7027C147.009 14.7786 148.547 13.2188 150.444 13.2188C152.342 13.2188 153.88 14.7786 153.88 16.7027L153.879 16.7813L153.877 16.8361V50.4803C153.877 51.4614 153.548 52.2865 152.888 52.9554C152.272 53.6242 151.459 53.9589 150.447 53.9589Z" fill="white"/>
<path d="M231.16 53.8952C230.193 53.8952 229.379 53.5606 228.72 52.8917C228.104 52.2229 227.796 51.3978 227.796 50.4167L227.796 4.14729C227.796 3.12164 228.104 2.29665 228.72 1.6723C229.379 1.00334 230.193 0.668961 231.16 0.668961C232.216 0.668961 233.095 1.09256 233.799 1.93987L262.559 40.7369V16.8908C262.557 16.8415 262.556 16.7919 262.556 16.7421C262.556 14.8397 264.077 13.2976 265.952 13.2976C267.816 13.2976 269.329 14.8185 269.35 16.7027V50.2257C269.35 51.2068 269.252 52.2941 268.634 52.963C268.019 53.6318 267.399 53.8952 266.386 53.8952C265.946 53.8952 265.463 53.8059 264.935 53.6275C264.451 53.4045 264.055 53.0925 263.748 52.6912L234.59 12.9101L234.59 50.4167C234.59 51.3978 234.261 52.2229 233.601 52.8917C232.985 53.5606 232.172 53.8952 231.16 53.8952Z" fill="white"/>
<path d="M85.0269 7.54136C86.9058 7.54136 88.4289 5.99094 88.4289 4.0784C88.4289 2.16585 86.9058 0.615433 85.0269 0.615433C83.1481 0.615433 81.625 2.16585 81.625 4.0784C81.625 5.99094 83.1481 7.54136 85.0269 7.54136Z" fill="#A072FF"/>
<path d="M101.55 45.4352C103.419 45.4352 104.934 43.8918 104.934 41.9878C104.934 40.0839 103.419 38.5405 101.55 38.5405C99.6804 38.5405 98.165 40.0839 98.165 41.9878C98.165 43.8918 99.6804 45.4352 101.55 45.4352Z" fill="#8472FF"/>
<path d="M150.412 7.6673C152.317 7.6673 153.862 6.09408 153.862 4.15342C153.862 2.21275 152.317 0.639526 150.412 0.639526C148.506 0.639526 146.962 2.21275 146.962 4.15342C146.962 6.09408 148.506 7.6673 150.412 7.6673Z" fill="#7886FF"/>
<path d="M206.729 14.4674C208.624 14.4674 210.16 12.903 210.16 10.9732C210.16 9.04345 208.624 7.47904 206.729 7.47904C204.834 7.47904 203.298 9.04345 203.298 10.9732C203.298 12.903 204.834 14.4674 206.729 14.4674Z" fill="#76A6FF"/>
<path d="M265.925 7.60746C267.829 7.60746 269.372 6.04224 269.372 4.11144C269.372 2.18065 267.829 0.615433 265.925 0.615433C264.021 0.615433 262.477 2.18065 262.477 4.11144C262.477 6.04224 264.021 7.60746 265.925 7.60746Z" fill="#73C7FF"/>
<path d="M27.2591 29.7598C29.0001 29.7598 30.4114 28.3223 30.4114 26.5491C30.4114 24.7759 29.0001 23.3384 27.2591 23.3384C25.5181 23.3384 24.1068 24.7759 24.1068 26.5491C24.1068 28.3223 25.5181 29.7598 27.2591 29.7598Z" fill="#BB72FF"/>
</svg>
